{"title":"Bedazzled =Special Edition= [.2000.]","uid":7215926,"size":1138296040,"categoryP":"video","categoryS":"movies","magnet":"?xt=urn:btih:eb517065b391e91ee94bafd17dc284175cc80df6&amp;dn=Bedazzled+%3DSpecial+Edition%3D+%5B.2000.%5D&amp;tr=udp%3A%2F%2Ftracker.openbittorrent.com%3A80&amp;tr=udp%3A%2F%2Fopen.demonii.com%3A1337&amp;tr=udp%3A%2F%2Ftracker.coppersurfer.tk%3A6969&amp;tr=udp%3A%2F%2Fexodus.desync.com%3A6969","seeders":0,"leechers":1,"uploader":"Carjacker","files":-1,"time":1335376217,"description":"***********************************************************************************\n                     Bedazzled =Special Edition= [2000]\n\nHopeless dweeb Elliot Richards is granted 7 wishes by the devil to snare Allison, the girl of his dreams, in exchange for his soul.\n\nDirector:\nHarold Ramis\nWriters:\nPeter Cook (1967 story), Peter Cook (1967 screenplay)\nStars:\nBrendan Fraser, Elizabeth Hurley and Frances O'Connor\n***********************************************************************************\nFormat                                   : Matroska\nFormat version                           : Version 2\nFile size                                : 1.05 GiB\nDuration                                 : 1h 33mn\nOverall bit rate                         : 1 614 Kbps\n\nVideo\nID                                       : 1\nFormat                                   : AVC\nFormat/Info                              : Advanced Video Codec\nFormat profile                           : &lt;a class=&quot;__cf_email__&quot; href=&quot;/cdn-cgi/l/email-protection&quot; data-cfemail=&quot;7b33121c133b3748554b&quot;&gt;[email&amp;#160;protected]&lt;/a&gt;&lt;script cf-hash='f9e31' type=&quot;text/javascript&quot;&gt;\n/* &lt;![CDATA[ */!function(){try{var t=&quot;currentScript&quot;in document?document.currentScript:function(){for(var t=document.getElementsByTagName(&quot;script&quot;),e=t.length;e--;)if(t[e].getAttribute(&quot;cf-hash&quot;))return t[e]}();if(t&amp;&amp;t.previousSibling){var e,r,n,i,c=t.previousSibling,a=c.getAttribute(&quot;data-cfemail&quot;);if(a){for(e=&quot;&quot;,r=parseInt(a.substr(0,2),16),n=2;a.length-n;n+=2)i=parseInt(a.substr(n,2),16)^r,e+=String.fromCharCode(i);e=document.createTextNode(e),c.parentNode.replaceChild(e,c)}}}catch(u){}}();/* ]]&gt; */&lt;/script&gt;\nDuration                                 : 1h 33mn\nBit rate                                 : 1 134 Kbps\nWidth                                    : 720 pixels\nHeight                                   : 368 pixels\nFrame rate mode                          : Variable\nFrame rate                               : 23.976 fps\nStream size                              : 755 MiB (70%)\nWriting library                          : x264 core 112\nLanguage                                 : English\nDefault                                  : Yes\nForced                                   : No\n\nAudio\nFormat                                   : AC-3\nFormat/Info                              : Audio Coding 3\nDuration                                 : 1h 33mn\nBit rate mode                            : Constant\nBit rate                                 : 448 Kbps\nChannel(s)                               : 6 channels\nSampling rate                            : 48.0 KHz\nBit depth                                : 16 bits\nCompression mode                         : Lossy\nStream size                              : 298 MiB (28%)\nLanguage                                 : English\nDefault                                  : Yes\nForced                                   : No\n\n***********************************************************************************\nNOTE FOR MY MOVIE TORRENTS: Each movie/episode has been hashed with an MD5 checker and I am listing the hash below. \n***********************************************************************************\nMovie MD5:  5AD0D75F8AD94B85EB04DF8BDC0E777D\n----------------------------------------------------------------------------\nMD5 Checker for Linux: &lt;a href=&quot; http://sinf.gr/en/hashcalc.html&quot; rel=&quot;nofollow&quot; target=&quot;_NEW&quot;&gt; http://sinf.gr/en/hashcalc.html&lt;/a&gt;\nMD5 Checker for Windows: &lt;a href=&quot; http://getmd5checker.com/&quot; rel=&quot;nofollow&quot; target=&quot;_NEW&quot;&gt; http://getmd5checker.com/&lt;/a&gt; \n----------------------------------------------------------------------------\n This was personally encoded by me, Carjacker,from the Special Edition. Nothing particualar to save off the Special Edition disc,except for interviews and trash stuff- didnt think you all would be interested,so,just the movie was recoded. Enjoy!\nLeave your thoughts/opinions and ratings on the A/V of this film for others to see. Thanks! \nPease seed as you DL so others may also enjoy the movie! \n**Requests are welcome!","torrent":{"xt":"urn:btih:eb517065b391e91ee94bafd17dc284175cc80df6","amp;dn":"Bedazzled+%3DSpecial+Edition%3D+%5B.2000.%5D","amp;tr":["udp%3A%2F%2Ftracker.openbittorrent.com%3A80","udp%3A%2F%2Fopen.demonii.com%3A1337","udp%3A%2F%2Ftracker.coppersurfer.tk%3A6969","udp%3A%2F%2Fexodus.desync.com%3A6969"],"infoHash":"eb517065b391e91ee94bafd17dc284175cc80df6","infoHashBuffer":{"type":"Buffer","data":[235,81,112,101,179,145,233,30,233,75,175,209,125,194,132,23,92,200,13,246]},"announce":[],"urlList":[]}}